<svg width="200" height="64" viewBox="0 0 200 64" fill="none" xmlns="http://www.w3.org/2000/svg">
<path d="M74.7045 20.8155C72.7322 21.9888 71.1728 23.5478 70.0263 25.4925V21.2446C70.0263 18.9904 69.3417 17.062 67.967 15.4704C66.5924 13.8788 64.9569 13.0803 63.0552 13.0803V15.0739C64.4244 15.0739 65.598 15.6714 66.5761 16.8664C67.5486 18.0615 68.0377 19.5227 68.0377 21.2446V44.9988H70.0317V31.8642C70.0263 30.3922 70.3306 28.9309 70.9283 27.5838C71.4988 26.2747 72.3083 25.0796 73.319 24.0693C74.3133 23.0752 75.4978 22.2876 76.8725 21.7118C78.2362 21.136 79.7087 20.8427 81.1866 20.8481C84.2402 20.8481 86.8646 21.9454 89.0543 24.1345C91.2439 26.3236 92.3415 28.9472 92.3415 32V44.9391H94.1345V31.9946C94.1345 28.9418 95.2212 26.3181 97.3892 24.129C99.5571 21.9399 102.192 20.8427 105.289 20.8427C106.773 20.8372 108.245 21.1414 109.604 21.739C110.973 22.3365 112.157 23.135 113.157 24.129C114.151 25.1231 114.95 26.3073 115.548 27.6816C116.14 29.0396 116.45 30.5117 116.444 31.9946V44.9337H118.237V31.9946C118.237 28.4584 116.977 25.4164 114.456 22.8688C111.935 20.3266 108.881 19.0555 105.295 19.0555C102.594 19.0555 100.149 19.816 97.9597 21.3424C95.77 22.8688 94.1889 24.8732 93.2108 27.3502C92.2817 24.8732 90.7223 22.8688 88.5326 21.3424C86.343 19.816 83.8979 19.0501 81.1975 19.0555C78.8339 19.0555 76.6768 19.6422 74.7045 20.8155ZM127.708 20.8318C125.741 22.0051 124.182 23.5587 123.03 25.5033V21.2609C123.03 19.0067 122.345 17.0837 120.97 15.4921C119.601 13.9006 117.96 13.1075 116.059 13.1075V15.0956C117.428 15.0956 118.601 15.6931 119.574 16.8882C120.547 18.0832 121.036 19.539 121.036 21.2609V44.9934H123.024V31.8697C123.019 30.3976 123.323 28.9418 123.921 27.5947C124.491 26.2856 125.301 25.0959 126.311 24.0802C127.306 23.0861 128.49 22.3039 129.865 21.7281C131.229 21.1523 132.696 20.8644 134.179 20.8644C137.233 20.8644 139.852 21.9562 142.041 24.1453C144.231 26.3344 145.329 28.9527 145.329 32V44.9282H147.122V32C147.122 28.9527 148.208 26.3344 150.376 24.1453C152.544 21.9562 155.174 20.8644 158.276 20.8644C159.76 20.859 161.232 21.1632 162.591 21.7607C163.96 22.3582 165.144 23.1513 166.139 24.1453C167.133 25.1394 167.932 26.3236 168.529 27.6924C169.127 29.0504 169.431 30.5171 169.426 32V44.9282H171.219V32C171.219 28.4638 169.958 25.4273 167.437 22.8851C164.916 20.3429 161.863 19.0718 158.276 19.0718C155.576 19.0718 153.131 19.8323 150.941 21.3587C148.752 22.8851 147.17 24.8841 146.198 27.3557C145.269 24.8787 143.709 22.8797 141.52 21.3587C139.33 19.8323 136.885 19.0718 134.185 19.0718C131.832 19.0718 129.675 19.6585 127.708 20.8318ZM194.925 39.8927C192.735 42.0818 190.111 43.1791 187.057 43.1791C185.02 43.1791 183.151 42.6685 181.45 41.6527C179.771 40.6641 178.38 39.2572 177.402 37.5733C176.408 35.8731 175.908 34.0044 175.908 31.9674V19.0284H174.115V31.962C174.115 35.5417 175.376 38.6054 177.897 41.1475C180.418 43.6897 183.471 44.9608 187.057 44.9608C189.405 44.9608 191.562 44.3742 193.529 43.2008C195.463 42.0656 197.071 40.4577 198.207 38.5239V50.9958C198.207 53.0274 197.707 54.9068 196.713 56.6342C195.74 58.3344 194.333 59.7413 192.632 60.7137C190.904 61.7077 189.024 62.2075 186.987 62.2075C183.89 62.2075 181.244 61.1102 179.054 58.9265C176.864 56.7374 175.767 54.0975 175.767 51.0012H173.974C173.974 54.5809 175.245 57.6446 177.793 60.1868C180.336 62.7289 183.401 64 186.987 64C190.573 64 193.637 62.7289 196.18 60.1868C198.723 57.6446 199.995 54.5809 200 51.0012V19.0284H198.207V31.962C198.212 35.0583 197.115 37.7036 194.925 39.8927Z" fill="#F80038"/>
<path d="M24.0811 14.5143C24.0811 17.6052 22.9889 20.2451 20.8047 22.4342C18.6204 24.6233 15.9961 25.7152 12.9316 25.7152C9.86715 25.7152 7.24279 24.6233 5.05855 22.4342C2.8743 20.2451 1.78217 17.6052 1.78217 14.5143V-6.47547e-10H0V14.5198C0 17.9419 1.16276 20.8915 3.49371 23.3631C5.81923 25.8347 9.00867 27.1872 12.1546 27.4099V45.0097H13.8118V27.4099C17.0719 27.1872 20.1309 25.7423 22.375 23.3631C24.7005 20.8915 25.8632 17.9419 25.8632 14.5143V-6.47547e-10H24.0811V14.5143ZM57.6544 39.7949C55.5951 37.6493 54.5682 35.0745 54.5682 32.0652C54.5682 28.5289 53.2967 25.487 50.7539 22.9394C48.211 20.3972 45.1574 19.1261 41.5931 19.1261C38.0287 19.1261 34.9751 20.3972 32.4323 22.9394C29.8894 25.4816 28.6126 28.5344 28.618 32.0978C28.618 35.6612 29.8894 38.7031 32.4323 41.2236C34.9751 43.744 38.0179 45.0042 41.5605 45.0042C44.3044 45.0042 46.7603 44.2438 48.9283 42.7174C51.0962 41.191 52.6665 39.2137 53.6391 36.7802C54.5682 39.1703 56.0841 41.1149 58.1869 42.6196C60.2896 44.1243 62.6423 44.9228 65.2558 45.0097V43.2171C62.2457 43.0759 59.7137 41.9406 57.6544 39.7949ZM30.4056 32.0597C30.4056 25.9053 35.399 20.9133 41.5551 20.9133C43.0601 20.9024 44.5543 21.212 45.9344 21.8095C47.3037 22.4071 48.4881 23.2056 49.4879 24.1996C50.4822 25.1937 51.2809 26.3779 51.8786 27.7522C52.4709 29.1102 52.7806 30.5822 52.7751 32.0652C52.7751 35.1614 51.6776 37.796 49.4879 39.9633C47.2982 42.1307 44.663 43.2171 41.5877 43.2171C38.5123 43.2171 35.8771 42.1307 33.6874 39.9633C31.4977 37.7905 30.4056 35.1614 30.4056 32.0597Z" fill="#F80038"/>
<circle cx="37" cy="27" r="2" fill="#F80038"/>
<circle cx="17" cy="14" r="2" fill="#F80038"/>
<circle cx="11" cy="12" r="2" fill="#F80038"/>
<circle cx="42" cy="29" r="2" fill="#F80038"/>
</svg>
