<svg width="26" height="32" viewBox="0 0 26 32" xmlns="http://www.w3.org/2000/svg">
<path d="M21.3801 16.9794C21.3413 13.0218 24.551 11.1238 24.6944 11.0295C22.891 8.34332 20.0816 7.97533 19.0804 7.93279C16.6895 7.68639 14.4152 9.36553 13.2018 9.36553C11.9915 9.36553 10.119 7.96923 8.13616 8.00591C5.53018 8.04534 3.12729 9.54821 1.78544 11.9238C-0.922129 16.7059 1.09206 23.7902 3.73103 27.6686C5.02053 29.567 6.55817 31.6992 8.57703 31.623C10.5212 31.544 11.2564 30.3426 13.6068 30.3426C15.9572 30.3426 16.618 31.623 18.6754 31.5837C20.7675 31.5442 22.0929 29.649 23.3735 27.7447C24.8543 25.5423 25.464 23.4101 25.5 23.3006C25.4535 23.279 21.4205 21.7065 21.3801 16.9794ZM17.5142 5.36529C18.5857 4.04211 19.309 2.20636 19.1117 0.375C17.5682 0.438965 15.6974 1.42145 14.59 2.74164C13.5963 3.91278 12.7265 5.78198 12.9596 7.57671C14.6827 7.71355 16.4415 6.68548 17.5142 5.36529Z" />
</svg>
