<svg width="29" height="32" viewBox="0 0 29 32" xmlns="http://www.w3.org/2000/svg">
<path d="M0.498518 1.85107C0.425149 2.11323 0.375 2.39598 0.375 2.71895V29.2853C0.375 29.6034 0.425149 29.8832 0.495656 30.1424L15.1553 16.0165C15.1553 16.0164 0.498518 1.85107 0.498518 1.85107Z"/>
<path d="M20.8762 10.5032L3.76007 0.819379C3.0777 0.397304 2.40593 0.290329 1.83838 0.437527L16.5598 14.6646L20.8762 10.5032Z"/>
<path d="M27.1867 14.0736L22.6183 11.4888L17.939 15.9968L22.7052 20.605L27.15 18.1223C29.3198 16.8647 28.5283 14.8404 27.1867 14.0736Z"/>
<path d="M1.79443 31.5502C2.37067 31.7141 3.05888 31.616 3.75864 31.183L20.9269 21.5955L16.5323 17.3486C16.5323 17.3487 1.79443 31.5502 1.79443 31.5502Z"/>
</svg>
