<svg width="26" height="22" viewBox="0 0 26 22" fill="#CCCCCC" xmlns="http://www.w3.org/2000/svg">
<path fill-rule="evenodd" clip-rule="evenodd" d="M11.6823 2.03784C9.12402 -0.67928 4.97671 -0.67928 2.41846 2.03784C-0.00299704 4.60999 -0.150559 8.72946 2.08024 11.4895L12.1123 21.6051C12.6013 22.0981 13.3984 22.0981 13.8874 21.6051L23.9198 11.4895C26.1506 8.72946 26.003 4.60999 23.5815 2.03784C21.0233 -0.67928 16.876 -0.67928 14.3177 2.03784L12.9998 3.43749L11.6823 2.03784ZM22.2163 3.32307C20.3983 1.39228 17.5008 1.39231 15.6829 3.32315L12.9997 6.1728L10.3171 3.32315C8.49918 1.39243 5.60161 1.39232 3.78367 3.32307M22.2163 3.32307C23.9709 5.18683 24.1043 8.20631 22.5161 10.2421L12.9999 19.8373L3.48387 10.2421C1.89569 8.20635 2.02917 5.18684 3.78367 3.32307" />
</svg>
