<svg width="24" height="24" viewBox="0 0 24 24" fill="#CCCCCC" xmlns="http://www.w3.org/2000/svg">
<path fill-rule="evenodd" clip-rule="evenodd" d="M12 21.5625C17.2812 21.5625 21.5625 17.2812 21.5625 12C21.5625 6.71878 17.2812 2.4375 12 2.4375C6.71878 2.4375 2.4375 6.71878 2.4375 12C2.4375 17.2812 6.71878 21.5625 12 21.5625ZM12 23.25C18.2132 23.25 23.25 18.2132 23.25 12C23.25 5.7868 18.2132 0.75 12 0.75C5.7868 0.75 0.75 5.7868 0.75 12C0.75 18.2132 5.7868 23.25 12 23.25Z" />
<path d="M11.0917 13.3005C10.8233 13.3005 10.6057 13.0829 10.6057 12.8145C10.6057 12.3735 10.7002 12 10.8892 11.694C11.0782 11.379 11.4022 11.055 11.8612 10.722C12.2662 10.434 12.5542 10.1865 12.7252 9.97951C12.9052 9.76351 12.9952 9.51151 12.9952 9.22351C12.9952 8.94451 12.8872 8.72851 12.6712 8.57551C12.4642 8.42251 12.1717 8.34601 11.7937 8.34601C11.4157 8.34601 11.0422 8.40451 10.6732 8.52151C10.5482 8.56117 10.4221 8.60548 10.2949 8.65444C9.86938 8.81832 9.37374 8.65991 9.17133 8.25128C8.97695 7.85884 9.12479 7.37837 9.52971 7.21153C9.76282 7.11549 10.0045 7.03015 10.2547 6.95551C10.7677 6.80251 11.3302 6.72601 11.9422 6.72601C12.8782 6.72601 13.6027 6.95101 14.1157 7.40101C14.6377 7.85101 14.8987 8.42251 14.8987 9.11551C14.8987 9.48451 14.8402 9.80401 14.7232 10.074C14.6062 10.344 14.4307 10.596 14.1967 10.83C13.9627 11.064 13.6702 11.307 13.3192 11.559C13.0492 11.757 12.8422 11.9235 12.6982 12.0585C12.5632 12.1845 12.4687 12.315 12.4147 12.45C12.3697 12.576 12.3472 12.729 12.3472 12.909C12.3472 13.1252 12.172 13.3005 11.9557 13.3005H11.0917ZM10.3897 15.555C10.3897 15.141 10.5022 14.853 10.7272 14.691C10.9522 14.52 11.2267 14.4345 11.5507 14.4345C11.8657 14.4345 12.1357 14.52 12.3607 14.691C12.5857 14.853 12.6982 15.141 12.6982 15.555C12.6982 15.951 12.5857 16.239 12.3607 16.419C12.1357 16.59 11.8657 16.6755 11.5507 16.6755C11.2267 16.6755 10.9522 16.59 10.7272 16.419C10.5022 16.239 10.3897 15.951 10.3897 15.555Z" />
</svg>
