<svg width="18" height="24" viewBox="0 0 18 24" fill="#CCCCCC" xmlns="http://www.w3.org/2000/svg">
<path fill-rule="evenodd" clip-rule="evenodd" d="M2.53125 9.75V7.37949C2.53125 3.74068 5.40527 0.75 9 0.75C12.5947 0.75 15.4688 3.74068 15.4688 7.37949V9.75H15.75C16.9926 9.75 18 10.7574 18 12V21C18 22.2426 16.9926 23.25 15.75 23.25H2.25C1.00745 23.25 0 22.2426 0 21V12C0 10.7574 1.00745 9.75 2.25 9.75H2.53125ZM4.21875 7.37949C4.21875 4.62756 6.38168 2.4375 9 2.4375C11.6183 2.4375 13.7812 4.62756 13.7812 7.37949V9.75H4.21875V7.37949ZM15.4688 11.4375H15.75C16.0606 11.4375 16.3125 11.6894 16.3125 12V21C16.3125 21.3106 16.0606 21.5625 15.75 21.5625H2.25C1.93936 21.5625 1.6875 21.3106 1.6875 21V12C1.6875 11.6894 1.93936 11.4375 2.25 11.4375H2.53125H15.4688Z" />
</svg>
