<svg width="26" height="26" viewBox="0 0 26 26" fill="#CCCCCC" xmlns="http://www.w3.org/2000/svg">
<path fill-rule="evenodd" clip-rule="evenodd" d="M16.3109 16.8869C14.8356 18.225 12.8777 19.0402 10.7291 19.0402C6.13898 19.0402 2.41795 15.3192 2.41795 10.7291C2.41795 6.13898 6.13898 2.41795 10.7291 2.41795C15.3192 2.41795 19.0402 6.13898 19.0402 10.7291C19.0402 12.8777 18.2248 14.8358 16.8869 16.311C16.609 16.6175 16.6124 16.6134 16.3109 16.8869ZM17.2524 18.6086C15.4818 20.0761 13.2083 20.9582 10.7291 20.9582C5.0798 20.9582 0.5 16.3785 0.5 10.7291C0.5 5.07972 5.0798 0.5 10.7291 0.5C16.3784 0.5 20.9582 5.07972 20.9582 10.7291C20.9582 13.2085 20.076 15.4818 18.6085 17.2524L25.1147 23.7588C25.567 24.211 25.6301 24.8812 25.2555 25.2556C24.8809 25.6301 24.211 25.5672 23.7586 25.1149L17.2524 18.6086Z" />
</svg>
