<svg width="26" height="26" viewBox="0 0 26 26" fill="#CCCCCC" xmlns="http://www.w3.org/2000/svg">
<path fill-rule="evenodd" clip-rule="evenodd" d="M21.75 9.875V8H23C24.3806 8 25.5 9.11931 25.5 10.5V20.5C25.5 21.6655 24.7026 22.6447 23.6235 22.9216C23.4242 22.9728 23.2151 23 23 23H21.75C21.75 23 21.7573 23.1426 21.75 23.3596C21.7262 24.0514 21.551 25.5 20.5 25.5C19.1194 25.5 15.5 23 15.5 23H8C6.61938 23 5.5 21.8807 5.5 20.5V19.25C6.12897 19.25 6.82416 18.9921 7.36646 18.7538L7.375 18.75V20.5C7.375 20.8452 7.65485 21.125 8 21.125H16.0847L16.5651 21.457L16.5718 21.4614L16.5974 21.4791L16.7045 21.5515C16.7988 21.615 16.9374 21.7071 17.1083 21.8181C17.4519 22.0413 17.9197 22.3361 18.423 22.6281C18.9256 22.9197 19.4328 23.1904 19.8719 23.3846L19.8753 23.3162C19.8784 23.2366 19.8787 23.1722 19.8781 23.1315L19.8771 23.0904L19.7743 21.125H23C23.3452 21.125 23.625 20.8452 23.625 20.5V10.5C23.625 10.1548 23.3452 9.875 23 9.875H21.75ZM20.5 17.0625C21.0179 17.0625 21.4375 17.4823 21.4375 18C21.4375 18.5177 21.0179 18.9375 20.5 18.9375H15.5C14.9821 18.9375 14.5625 18.5177 14.5625 18C14.5625 17.4823 14.9821 17.0625 15.5 17.0625H20.5Z" />
<path fill-rule="evenodd" clip-rule="evenodd" d="M6.12283 15.5904L6.22559 13.625H3C2.65482 13.625 2.375 13.3452 2.375 13V3C2.375 2.65482 2.65482 2.375 3 2.375H18C18.3452 2.375 18.625 2.65482 18.625 3V13C18.625 13.3452 18.3452 13.625 18 13.625H9.91538L9.43479 13.957L9.42836 13.9614L9.40249 13.9791L9.29553 14.0515C9.20105 14.115 9.06268 14.2071 8.89167 14.3181C8.54803 14.5413 8.08039 14.8361 7.57693 15.1281C7.07438 15.4197 6.56708 15.6904 6.12801 15.8846C6.12667 15.8615 6.12556 15.8386 6.12467 15.8161C6.12151 15.7366 6.1214 15.6722 6.12193 15.6315L6.12283 15.5904ZM10.5 15.5C10.5 15.5 6.88071 18 5.5 18C4.449 18 4.27376 16.5514 4.25 15.8596C4.24255 15.6426 4.25 15.5 4.25 15.5H3C2.78477 15.5 2.5759 15.4728 2.37662 15.4217C1.29753 15.1447 0.5 14.1655 0.5 13V3C0.5 1.61929 1.61929 0.5 3 0.5H18C19.3807 0.5 20.5 1.61929 20.5 3V13C20.5 14.3807 19.3807 15.5 18 15.5H10.5Z" />
<path fill-rule="evenodd" clip-rule="evenodd" d="M4.5625 5.5C4.5625 4.98223 4.98223 4.5625 5.5 4.5625H15.5C16.0178 4.5625 16.4375 4.98223 16.4375 5.5C16.4375 6.01777 16.0178 6.4375 15.5 6.4375H5.5C4.98223 6.4375 4.5625 6.01777 4.5625 5.5ZM4.5625 10.5C4.5625 9.98223 4.98223 9.5625 5.5 9.5625H10.5C11.0178 9.5625 11.4375 9.98223 11.4375 10.5C11.4375 11.0178 11.0178 11.4375 10.5 11.4375H5.5C4.98223 11.4375 4.5625 11.0178 4.5625 10.5Z" />
</svg>
