<svg width="24" height="24" viewBox="0 0 24 24" fill="none" xmlns="http://www.w3.org/2000/svg">
<rect width="24" height="24" rx="5" fill="#2ECC71"/>
<path fill-rule="evenodd" clip-rule="evenodd" d="M10.3311 5.90534C9.86432 4.97186 8.62035 4.76998 7.88238 5.50795L6.82375 6.56657C6.13087 7.25945 5.84852 8.3205 6.2676 9.26862C7.88465 12.9272 11.0697 16.1123 14.7283 17.7293C15.6764 18.1484 16.7375 17.8661 17.4304 17.1732L18.489 16.1146C19.2269 15.3766 19.0251 14.1326 18.0916 13.6658L16.2925 12.7662C16.0687 12.6544 15.8309 12.5897 15.5918 12.5701C15.4962 12.5623 15.4004 12.5616 15.3053 12.5681C14.8527 12.5987 14.4142 12.7894 14.0779 13.1257L13.8283 13.3753C12.5712 12.5163 11.4806 11.4257 10.6217 10.1686L10.8712 9.91908C11.104 9.68629 11.267 9.40454 11.3555 9.10306C11.4217 8.87737 11.4461 8.64063 11.4268 8.4051C11.4072 8.16602 11.3425 7.92819 11.2307 7.70443L10.3311 5.90534ZM9.39509 6.37338C9.24774 6.07873 8.85522 6.0151 8.62237 6.24795L7.56375 7.30657C7.13543 7.73489 7.0028 8.34335 7.22478 8.84553C8.7365 12.2658 11.7311 15.2604 15.1514 16.7721C15.6536 16.9941 16.262 16.8615 16.6904 16.4332L17.749 15.3746C17.9818 15.1417 17.9182 14.7492 17.6236 14.6018L15.8245 13.7023C15.4888 13.5345 15.0833 13.6003 14.8178 13.8657L14.2668 14.4167C14.0936 14.5899 13.8235 14.6198 13.6166 14.4887C11.9641 13.4409 10.5561 12.0328 9.50827 10.3803C9.37712 10.1734 9.407 9.90329 9.58019 9.7301L10.1312 9.17908C10.3967 8.91363 10.4625 8.50819 10.2946 8.17245L9.39509 6.37338Z" fill="white"/>
</svg>
