<svg width="30" height="30" viewBox="0 0 30 30" fill="none" xmlns="http://www.w3.org/2000/svg">
<path fill-rule="evenodd" clip-rule="evenodd" d="M0 14.9999C0 13.9321 0.6296 13.0664 1.40625 13.0664L28.5938 13.0664C29.3704 13.0664 30 13.9321 30 14.9999C30 16.0677 29.3704 16.9334 28.5938 16.9334L1.40625 16.9334C0.6296 16.9334 0 16.0677 0 14.9999Z" fill="#EDEDED"/>
<path fill-rule="evenodd" clip-rule="evenodd" d="M15.0006 30C13.9328 30 13.0671 29.3704 13.0671 28.5938L13.0671 1.40625C13.0671 0.629601 13.9328 0 15.0006 0C16.0685 0 16.9341 0.629601 16.9341 1.40625L16.9341 28.5938C16.9341 29.3704 16.0685 30 15.0006 30Z" fill="#EDEDED"/>
</svg>
