<svg width="26" height="26" viewBox="0 0 26 26" fill="#CCCCCC" xmlns="http://www.w3.org/2000/svg">
<path fill-rule="evenodd" clip-rule="evenodd" d="M23 2.375H10.5C10.1548 2.375 9.875 2.65485 9.875 3V5.5H8V3C8 1.61931 9.11938 0.5 10.5 0.5H23C24.3806 0.5 25.5 1.61931 25.5 3V15.5C25.5 16.8807 24.3806 18 23 18H20.5V16.125H23C23.3452 16.125 23.625 15.8452 23.625 15.5V3C23.625 2.65485 23.3452 2.375 23 2.375ZM3 9.875H15.5C15.8452 9.875 16.125 10.1548 16.125 10.5V23C16.125 23.3452 15.8452 23.625 15.5 23.625H3C2.65485 23.625 2.375 23.3452 2.375 23V10.5C2.375 10.1548 2.65485 9.875 3 9.875ZM0.5 10.5C0.5 9.11931 1.61938 8 3 8H15.5C16.8806 8 18 9.11931 18 10.5V23C18 24.3807 16.8806 25.5 15.5 25.5H3C1.61938 25.5 0.5 24.3807 0.5 23V10.5Z" />
</svg>
