<svg width="50" height="50" viewBox="0 0 50 50" fill="none" xmlns="http://www.w3.org/2000/svg">
<path fill-rule="evenodd" clip-rule="evenodd" d="M5 0C2.23877 0 0 2.23862 0 5V35C0 37.7614 2.23877 40 5 40H16.9849C16.0339 39.8932 15.2606 39.5729 14.4061 38.7186C13.7115 38.0237 13.299 37.1532 13.1696 36.25H5C4.30969 36.25 3.75 35.6903 3.75 35V33.8976C3.77563 33.8745 3.80066 33.8506 3.82568 33.8258L15 22.6517L19.6429 27.2946L21.9061 25.0314C22.038 24.8999 22.1753 24.7784 22.3187 24.6672L16.3257 18.6742C15.5939 17.9419 14.4061 17.9419 13.6743 18.6742L3.75 28.5985V16.81C4.16077 16.853 4.57764 16.875 5 16.875C11.5582 16.875 16.875 11.5584 16.875 5C16.875 4.57779 16.8524 4.16077 16.8097 3.75H45C45.6903 3.75 46.25 4.30969 46.25 5V28.1609L33.9233 13.7798C33.5602 13.3557 33.0267 13.1158 32.4683 13.1253C31.9098 13.1348 31.3849 13.3926 31.0358 13.8287L22.4341 24.5804C23.8904 23.5239 25.8508 23.4755 27.3529 24.4354L32.55 17.9391L46.0767 33.7202C46.131 33.784 46.189 33.8432 46.25 33.8977V35C46.25 35.6903 45.6903 36.25 45 36.25H36.8304C36.701 37.1532 36.2885 38.0237 35.5939 38.7186C34.7394 39.5729 33.9661 39.8932 33.0151 40H45C47.7612 40 50 37.7614 50 35V5C50 2.23862 47.7612 0 45 0H5ZM5 3.75H13.0292C13.092 4.15741 13.125 4.57489 13.125 5C13.125 9.4873 9.4873 13.125 5 13.125C4.5752 13.125 4.15771 13.0923 3.75 13.0295V5C3.75 4.30969 4.30969 3.75 5 3.75Z" fill="#EDEDED"/>
<path fill-rule="evenodd" clip-rule="evenodd" d="M23.6742 26.7992C24.4064 26.0669 25.5936 26.0669 26.3258 26.7992L33.8258 34.2992C34.5581 35.0314 34.5581 36.2186 33.8258 36.9508C33.0936 37.6831 31.9064 37.6831 31.1742 36.9508L26.875 32.6516V48.125C26.875 49.1605 26.0355 50 25 50C23.9645 50 23.125 49.1605 23.125 48.125V32.6516L18.8258 36.9508C18.0936 37.6831 16.9064 37.6831 16.1742 36.9508C15.4419 36.2186 15.4419 35.0314 16.1742 34.2992L23.6742 26.7992Z" fill="#EDEDED"/>
</svg>
