<svg width="22" height="26" viewBox="0 0 22 26" fill="#CCCCCC" xmlns="http://www.w3.org/2000/svg">
<path fill-rule="evenodd" clip-rule="evenodd" d="M12.5071 16.2456C14.9882 14.6539 16.3837 12.2112 16.3837 9.83333C16.3837 7.36922 16.0179 5.51785 15.2411 4.32515C14.5749 3.30215 13.4351 2.5 11.0504 2.5C8.66566 2.5 7.52587 3.30215 6.85962 4.32515C6.08285 5.51785 5.71704 7.36922 5.71704 9.83333C5.71704 12.2112 7.11255 14.6539 9.59364 16.2456C10.4759 16.8116 11.6249 16.8116 12.5071 16.2456ZM13.5871 17.929C16.5415 16.0336 18.3837 13.0032 18.3837 9.83333C18.3837 4.67868 16.917 0.5 11.0504 0.5C5.18371 0.5 3.71704 4.67868 3.71704 9.83333C3.71704 13.0032 5.55939 16.0336 8.51384 17.929C10.0103 18.889 11.9336 18.9163 13.4544 18.011C13.499 17.9845 13.5433 17.9571 13.5871 17.929Z" />
<path d="M13.5871 17.929C13.5433 17.9571 13.499 17.9845 13.4544 18.011C13.4371 18.0213 13.4198 18.0314 13.4024 18.0414C14.4458 19.0886 15.7462 20.036 17.3212 20.7184C17.5623 20.8229 17.8333 20.9295 18.0866 21.0292L18.089 21.0301C18.2193 21.0813 18.3448 21.1306 18.4589 21.1769C18.8251 21.325 19.1376 21.4644 19.3952 21.6162C19.9064 21.9178 20.0043 22.1403 19.9991 22.3846C19.9915 22.7298 19.8825 23.0455 19.7318 23.2494C19.5951 23.4346 19.4532 23.5 19.2936 23.5H2.70543C2.54734 23.5 2.40818 23.436 2.2733 23.2576C2.12437 23.0608 2.0139 22.754 2.00078 22.4131C1.99101 22.1615 2.08806 21.9348 2.60807 21.6266C2.87022 21.4714 3.18913 21.3289 3.56236 21.1779C3.67741 21.1314 3.80406 21.0817 3.93559 21.03L3.95359 21.0229L3.95665 21.0217C4.21055 20.9221 4.48155 20.8156 4.72081 20.7127C6.31504 20.0264 7.62059 19.0733 8.66185 18.0201C8.6121 17.9907 8.56266 17.9603 8.51384 17.929C7.98592 17.5903 7.49349 17.2154 7.04075 16.81C6.19847 17.6185 5.16667 18.3432 3.9301 18.8757C3.71846 18.9668 3.51185 19.0477 3.2887 19.1352L3.27855 19.1391L3.27488 19.1406C3.12993 19.1974 2.97795 19.2569 2.81254 19.3239C2.41734 19.4836 1.9846 19.6714 1.58848 19.906C0.793195 20.3773 -0.0484802 21.1679 0.00217897 22.4899C0.0284241 23.1756 0.24632 23.8931 0.677838 24.4639C1.12339 25.0531 1.81645 25.5 2.70543 25.5H19.2936C20.1963 25.5 20.8957 25.0395 21.3401 24.4384C21.7707 23.8559 21.9834 23.1249 21.9986 22.4286C22.027 21.1283 21.1939 20.355 20.4111 19.8935C20.0214 19.6636 19.596 19.4795 19.209 19.3229C19.0528 19.2597 18.9084 19.2029 18.7705 19.1488C18.541 19.0588 18.3304 18.9761 18.1162 18.8833C16.8995 18.356 15.8741 17.6383 15.0306 16.8363C14.586 17.2317 14.1035 17.5976 13.5871 17.929Z" />
</svg>
