<svg width="24" height="24" viewBox="0 0 24 24" fill="none" xmlns="http://www.w3.org/2000/svg">
<rect width="24" height="24" rx="5" fill="#3B5998"/>
<path d="M10.4049 7.71135C10.4049 8.06416 10.4049 9.63888 10.4049 9.63888H9V11.9959H10.4049V19H13.291V11.9961H15.2277C15.2277 11.9961 15.409 10.8659 15.497 9.63019C15.2449 9.63019 13.3019 9.63019 13.3019 9.63019C13.3019 9.63019 13.3019 8.25897 13.3019 8.01862C13.3019 7.77776 13.6166 7.45376 13.9276 7.45376C14.238 7.45376 14.8932 7.45376 15.5 7.45376C15.5 7.13285 15.5 6.02404 15.5 5C14.6899 5 13.7683 5 13.362 5C10.3336 4.99984 10.4049 7.35917 10.4049 7.71135Z" fill="white"/>
</svg>
