<svg width="24" height="24" viewBox="0 0 24 24" fill="none" xmlns="http://www.w3.org/2000/svg">
<rect width="24" height="24" rx="5" fill="#DD4B39"/>
<path d="M13.5931 13.2379C13.2552 15.4828 11.5655 16.6897 9.3931 16.6897C6.95516 16.6897 5 14.7828 5 12.3448C5 9.9069 6.95516 8 9.3931 8C10.5759 8 11.6138 8.33794 12.3621 9.06206L11.0828 10.3414C10.6724 9.90687 10.069 9.68965 9.3931 9.68965C7.94481 9.68965 6.68965 10.8966 6.68965 12.3448C6.68965 13.7931 7.94481 15 9.3931 15C10.6 15 11.5172 14.2276 11.7828 13.0689H9.34481V11.3793H13.5931C13.6414 11.669 13.6655 12.031 13.6655 12.3448C13.6655 12.6586 13.6414 12.9483 13.5931 13.2379Z" fill="white"/>
<path d="M18.9999 12.5862H17.5516V14.0345H16.3448V12.5862H14.8965V11.3793H16.3448V9.93105H17.5516V11.3793H18.9999V12.5862Z" fill="white"/>
</svg>
