<svg width="24" height="24" viewBox="0 0 24 24" fill="none" xmlns="http://www.w3.org/2000/svg">
<rect width="24" height="24" rx="5" fill="url(#paint0_radial)"/>
<path d="M15.1364 4.99999H8.86341C6.73313 4.99999 5 6.7332 5 8.86349V15.1365C5 17.2669 6.73313 19 8.86341 19H15.1364C17.2669 19 19 17.2668 19 15.1365V8.86349C19.0001 6.7332 17.2669 4.99999 15.1364 4.99999ZM17.7579 15.1365C17.7579 16.5819 16.582 17.7578 15.1365 17.7578H8.86341C7.41805 17.7579 6.24215 16.5819 6.24215 15.1365V8.86349C6.24215 7.41812 7.41805 6.24214 8.86341 6.24214H15.1364C16.5819 6.24214 17.7579 7.41812 17.7579 8.86349V15.1365H17.7579Z" fill="white"/>
<path d="M12 8.39272C10.0108 8.39272 8.39258 10.011 8.39258 12.0002C8.39258 13.9893 10.0108 15.6074 12 15.6074C13.9892 15.6074 15.6075 13.9893 15.6075 12.0002C15.6075 10.011 13.9892 8.39272 12 8.39272ZM12 14.3652C10.6959 14.3652 9.63473 13.3043 9.63473 12.0001C9.63473 10.6958 10.6958 9.63479 12 9.63479C13.3043 9.63479 14.3653 10.6958 14.3653 12.0001C14.3653 13.3043 13.3042 14.3652 12 14.3652Z" fill="white"/>
<path d="M15.7587 7.33946C15.5194 7.33946 15.2843 7.43635 15.1153 7.60611C14.9454 7.77504 14.8478 8.01022 14.8478 8.25037C14.8478 8.48977 14.9455 8.72487 15.1153 8.89463C15.2842 9.06356 15.5194 9.16128 15.7587 9.16128C15.9988 9.16128 16.2332 9.06356 16.4029 8.89463C16.5727 8.72487 16.6696 8.48969 16.6696 8.25037C16.6696 8.01022 16.5727 7.77504 16.4029 7.60611C16.234 7.43635 15.9988 7.33946 15.7587 7.33946Z" fill="white"/>
<defs>
<radialGradient id="paint0_radial" cx="0" cy="0" r="1" gradientUnits="userSpaceOnUse" gradientTransform="translate(-5 32) rotate(-45.4897) scale(41.3673 33.3702)">
<stop stop-color="#F9ED32"/>
<stop offset="0.707182" stop-color="#EE2A7B"/>
<stop offset="1" stop-color="#002AFF"/>
</radialGradient>
</defs>
</svg>
