<svg width="24" height="24" viewBox="0 0 24 24" fill="none" xmlns="http://www.w3.org/2000/svg">
<rect width="24" height="24" rx="5" fill="#168DE2"/>
<path d="M14.4181 11.6516C14.3381 10.1039 13.1891 9.17325 11.802 9.17325H11.7494C10.1482 9.17325 9.2599 10.4323 9.2599 11.8628C9.2599 13.4643 10.3345 14.4765 11.743 14.4765C13.3137 14.4765 14.3467 13.3259 14.4212 11.9646L14.4181 11.6516ZM11.7574 7.78874C12.8272 7.78874 13.8333 8.26158 14.5717 9.00172V9.00433C14.5717 8.64902 14.8108 8.3814 15.1432 8.3814L15.2268 8.38034C15.7464 8.38034 15.853 8.87211 15.853 9.02782L15.8561 14.555C15.8189 14.9169 16.2293 15.1037 16.4568 14.8717C17.3438 13.9596 18.4055 10.1827 15.9047 7.99445C13.5734 5.95429 10.446 6.2906 8.78281 7.4371C7.01525 8.65677 5.88368 11.3553 6.98279 13.8911C8.18109 16.6562 11.6093 17.4807 13.6464 16.6578C14.6782 16.2413 15.1547 17.6362 14.0832 18.0919C12.4644 18.7819 7.9576 18.7124 5.85227 15.0653C4.42983 12.6031 4.50568 8.27072 8.27799 6.02583C11.164 4.30843 14.9687 4.78364 17.2628 7.17976C19.6611 9.68484 19.5213 14.3751 17.1824 16.1994C16.1217 17.0276 14.5483 16.2209 14.5581 15.0135L14.5472 14.619C13.8088 15.3515 12.8271 15.7785 11.7573 15.7785C9.64359 15.7785 7.78313 13.919 7.78313 11.8051C7.78321 9.67016 9.64367 7.78882 11.7574 7.78874Z" fill="white"/>
</svg>
