<svg width="24" height="24" viewBox="0 0 24 24" fill="none" xmlns="http://www.w3.org/2000/svg">
<rect width="24" height="24" rx="5" fill="#167ED9"/>
<path d="M8.49917 19C7.68982 19 7 18.4867 7 17.3232C7 15.527 8.52968 14.163 9.22371 13.7773C9.22371 13.7773 10.1947 14.3425 11.2021 14.7062C9.20054 13.4266 7.92154 11.0951 7.92154 8.5073C7.92154 6.08887 9.18485 5 10.3254 5C11.243 5 13.4183 6.01992 13.4183 9.93358C13.4183 14.1448 11.2436 19 8.49917 19Z" fill="white"/>
<path d="M11.9969 17.6655C11.9969 18.2758 12.2079 18.5148 12.5305 18.5148C13.3378 18.5148 14.624 16.6108 14.5751 14.6118C15.7992 13.307 17.2666 11.2629 17.2666 9.62578C17.2666 9.22946 17.1554 8.89576 16.6905 8.89576C15.9798 8.89576 14.9643 10.1335 14.3201 11.3626C13.6989 12.6359 13.1178 14.0882 12.3464 16.0814C12.1661 16.5814 11.9969 17.1869 11.9969 17.6655Z" fill="white"/>
</svg>
