<svg width="24" height="24" viewBox="0 0 24 24" fill="none" xmlns="http://www.w3.org/2000/svg">
<rect width="24" height="24" rx="5" fill="#ED812B"/>
<path d="M11.5141 14.861C10.4288 14.7479 9.45026 14.4806 8.61245 13.8253C8.5085 13.7438 8.40117 13.6652 8.3063 13.5741C7.9396 13.2219 7.90265 12.8186 8.19281 12.4029C8.44105 12.0472 8.85775 11.952 9.29088 12.1563C9.37475 12.1959 9.45466 12.2453 9.5312 12.2984C11.0926 13.3712 13.2376 13.4008 14.8048 12.3466C14.9601 12.2275 15.1261 12.1305 15.3184 12.0809C15.6925 11.9849 16.0413 12.1223 16.242 12.4495C16.4713 12.8233 16.4684 13.1881 16.1859 13.4782C15.7524 13.9231 15.2312 14.2449 14.652 14.4696C14.1044 14.6819 13.5046 14.7888 12.9109 14.8597C13.0005 14.9572 13.0427 15.0052 13.0987 15.0615C13.9048 15.8714 14.7145 16.678 15.518 17.4905C15.7917 17.7673 15.8489 18.1105 15.6982 18.4325C15.5334 18.7844 15.1645 19.0159 14.8028 18.9911C14.5736 18.9753 14.3949 18.8612 14.2361 18.7013C13.6277 18.0891 13.0079 17.4883 12.4119 16.8645C12.2385 16.6831 12.155 16.7175 12.002 16.8749C11.3899 17.505 10.768 18.1253 10.1423 18.7422C9.86139 19.0192 9.52709 19.069 9.20129 18.9108C8.85497 18.7429 8.63459 18.3894 8.6516 18.0341C8.66333 17.7938 8.78151 17.6102 8.94646 17.4456C9.74424 16.649 10.5398 15.8503 11.3357 15.0524C11.3883 14.9993 11.4375 14.943 11.5141 14.861Z" fill="white"/>
<path d="M12.1753 12.0862C10.2391 12.0796 8.65149 10.4745 8.66278 8.53526C8.67392 6.57461 10.2626 4.99459 12.2178 5.00001C14.177 5.00529 15.7495 6.60804 15.7397 8.58907C15.7298 10.5244 14.1311 12.0929 12.1753 12.0862ZM13.9349 8.53995C13.9316 7.57707 13.1647 6.81052 12.2037 6.80964C11.2347 6.80862 10.461 7.5891 10.4685 8.56077C10.4756 9.51998 11.2491 10.2811 12.2127 10.2776C13.1734 10.2742 13.9382 9.50268 13.9349 8.53995Z" fill="white"/>
</svg>
