<svg width="24" height="24" viewBox="0 0 24 24" fill="none" xmlns="http://www.w3.org/2000/svg">
<rect width="24" height="24" rx="5" fill="#1DA1F2"/>
<path d="M19 8.30147C18.4847 8.52233 17.9318 8.67211 17.3509 8.73898C17.9441 8.3954 18.3981 7.85045 18.6133 7.20309C18.0569 7.52126 17.4428 7.75229 16.7884 7.87753C16.2644 7.3368 15.519 7 14.6923 7C13.1062 7 11.8202 8.24394 11.8202 9.77729C11.8202 9.99476 11.8456 10.2072 11.8946 10.4103C9.50801 10.2943 7.39178 9.18832 5.97543 7.50772C5.72784 7.9173 5.58699 8.39454 5.58699 8.90398C5.58699 9.86783 6.0944 10.7183 6.86427 11.2158C6.3936 11.2006 5.95093 11.0754 5.56339 10.8672V10.9019C5.56339 12.2474 6.55371 13.3703 7.86682 13.6259C7.62624 13.6885 7.37255 13.7232 7.11009 13.7232C6.92464 13.7232 6.74529 13.7054 6.56944 13.6716C6.93511 14.7759 7.99543 15.5789 9.25171 15.601C8.26926 16.3456 7.03048 16.7882 5.68499 16.7882C5.45317 16.7882 5.22482 16.7747 5 16.7501C6.27114 17.5397 7.78024 18 9.40218 18C14.6853 18 17.5732 13.7672 17.5732 10.0963L17.5635 9.73668C18.1278 9.3474 18.6159 8.85829 19 8.30147Z" fill="white"/>
</svg>
