<svg width="24" height="24" viewBox="0 0 24 24" fill="none" xmlns="http://www.w3.org/2000/svg">
<rect width="24" height="24" rx="5" fill="#45668E"/>
<path d="M18.9258 15.2249C18.9088 15.1883 18.893 15.1579 18.8783 15.1336C18.6354 14.6955 18.1712 14.1577 17.4861 13.5201L17.4716 13.5055L17.4643 13.4983L17.457 13.491H17.4497C17.1387 13.1941 16.9418 12.9945 16.8593 12.8923C16.7084 12.6976 16.6746 12.5005 16.7571 12.3008C16.8154 12.15 17.0342 11.8313 17.4131 11.3446C17.6125 11.0866 17.7703 10.8798 17.8869 10.7241C18.7276 9.60459 19.0921 8.88923 18.9803 8.57771L18.9369 8.50491C18.9077 8.46108 18.8324 8.42099 18.711 8.38442C18.5894 8.34793 18.434 8.3419 18.2444 8.36622L16.1452 8.38074C16.1111 8.36867 16.0626 8.3698 15.9993 8.38442C15.9361 8.39905 15.9045 8.40639 15.9045 8.40639L15.868 8.42467L15.839 8.44663C15.8147 8.46116 15.788 8.4867 15.7588 8.52322C15.7297 8.5596 15.7055 8.60231 15.6861 8.65097C15.4575 9.23988 15.1977 9.78741 14.906 10.2936C14.7262 10.5954 14.5611 10.8569 14.4103 11.0784C14.2597 11.2998 14.1333 11.4629 14.0313 11.5674C13.9292 11.6721 13.837 11.7559 13.7543 11.8193C13.6716 11.8826 13.6085 11.9094 13.5649 11.8996C13.5211 11.8898 13.4798 11.8801 13.4408 11.8704C13.3728 11.8266 13.3181 11.767 13.2769 11.6915C13.2355 11.6161 13.2076 11.5212 13.193 11.4068C13.1785 11.2923 13.17 11.1939 13.1675 11.1111C13.1652 11.0284 13.1663 10.9115 13.1712 10.7606C13.1763 10.6097 13.1785 10.5076 13.1785 10.454C13.1785 10.2691 13.1821 10.0683 13.1894 9.85172C13.1967 9.63514 13.2027 9.46354 13.2076 9.33712C13.2126 9.21057 13.2149 9.07669 13.2149 8.93554C13.2149 8.79439 13.2063 8.6837 13.1894 8.60335C13.1726 8.52311 13.1469 8.44523 13.113 8.36972C13.0789 8.29429 13.0291 8.23594 12.9636 8.19451C12.898 8.15314 12.8165 8.12031 12.7194 8.09591C12.4618 8.03754 12.1338 8.00596 11.7353 8.00105C10.8315 7.99133 10.2507 8.04978 9.99317 8.17633C9.89112 8.2298 9.79878 8.30285 9.71621 8.39526C9.62872 8.50238 9.61651 8.56083 9.67968 8.57045C9.97129 8.6142 10.1777 8.71886 10.2992 8.88432L10.343 8.972C10.3771 9.03526 10.4111 9.14726 10.4451 9.30784C10.4791 9.46842 10.501 9.64606 10.5107 9.84065C10.5349 10.196 10.5349 10.5002 10.5107 10.7532C10.4863 11.0064 10.4634 11.2034 10.4414 11.3446C10.4195 11.4857 10.3867 11.6001 10.343 11.6877C10.2992 11.7753 10.2701 11.8288 10.2555 11.8483C10.2409 11.8677 10.2288 11.88 10.2191 11.8848C10.156 11.909 10.0903 11.9214 10.0223 11.9214C9.95418 11.9214 9.87162 11.8872 9.77445 11.8191C9.6773 11.7509 9.57648 11.6573 9.47198 11.538C9.36749 11.4187 9.24964 11.252 9.11838 11.0379C8.98723 10.8238 8.85115 10.5707 8.71023 10.2787L8.59363 10.0669C8.52074 9.93068 8.42117 9.73231 8.29481 9.47198C8.16839 9.21154 8.05664 8.95963 7.95949 8.71627C7.92066 8.61407 7.86232 8.53626 7.78458 8.48271L7.7481 8.46075C7.72385 8.44132 7.68491 8.42068 7.6315 8.39869C7.57801 8.37673 7.5222 8.36097 7.46384 8.35128L5.4666 8.36581C5.26251 8.36581 5.12403 8.41211 5.05111 8.5046L5.02193 8.54835C5.00735 8.57272 5 8.61164 5 8.66521C5 8.71875 5.01458 8.78447 5.04376 8.86228C5.33532 9.54859 5.65239 10.2105 5.99496 10.848C6.33753 11.4856 6.63522 11.9992 6.88784 12.3883C7.14052 12.7777 7.39807 13.1453 7.6605 13.4907C7.92293 13.8363 8.09665 14.0578 8.18164 14.155C8.26673 14.2525 8.33357 14.3254 8.38216 14.3741L8.56442 14.5492C8.68104 14.6661 8.8523 14.806 9.07828 14.969C9.3043 15.1321 9.55453 15.2927 9.82908 15.451C10.1037 15.6091 10.4232 15.738 10.7877 15.8378C11.1521 15.9376 11.5068 15.9777 11.8519 15.9584H12.6902C12.8602 15.9437 12.989 15.8901 13.0765 15.7977L13.1055 15.7611C13.125 15.7321 13.1433 15.6869 13.1601 15.6262C13.1772 15.5654 13.1857 15.4984 13.1857 15.4255C13.1807 15.2162 13.1966 15.0276 13.2329 14.8597C13.2693 14.6919 13.3107 14.5654 13.357 14.4801C13.4033 14.395 13.4555 14.3231 13.5136 14.2649C13.5719 14.2065 13.6134 14.1711 13.6378 14.159C13.662 14.1467 13.6813 14.1384 13.6959 14.1334C13.8125 14.0945 13.9498 14.1322 14.1079 14.2467C14.2658 14.361 14.414 14.5023 14.5525 14.6701C14.691 14.8381 14.8575 15.0266 15.0518 15.2358C15.2463 15.4451 15.4163 15.6007 15.562 15.7031L15.7078 15.7907C15.8051 15.8492 15.9314 15.9027 16.087 15.9514C16.2422 16 16.3782 16.0122 16.495 15.9879L18.361 15.9587C18.5456 15.9587 18.6892 15.9281 18.7911 15.8674C18.8931 15.8065 18.9538 15.7395 18.9733 15.6666C18.9928 15.5936 18.9939 15.5108 18.977 15.4183C18.9597 15.3259 18.9427 15.2614 18.9258 15.2249Z" fill="white"/>
</svg>
